<?xml version="1.0" standalone="no"?>
<!DOCTYPE svg PUBLIC "-//W3C//DTD SVG 20010904//EN"
 "http://www.w3.org/TR/2001/REC-SVG-20010904/DTD/svg10.dtd">
<svg version="1.0" xmlns="http://www.w3.org/2000/svg"
 width="1024.000000pt" height="1024.000000pt" viewBox="0 0 1024.000000 1024.000000"
 preserveAspectRatio="xMidYMid meet">
<metadata>
Created by potrace 1.14, written by Peter Selinger 2001-2017
</metadata>
<g transform="translate(0.000000,1024.000000) scale(0.100000,-0.100000)"
fill="#000000" stroke="none">
<path d="M2841 8477 c-13 -6 -33 -24 -44 -39 -20 -27 -20 -44 -17 -3375 3
-3613 2 -3383 10 -3379 3 2 16 -11 30 -28 21 -28 22 -29 2 -12 -23 20 -31 9
-10 -12 9 -9 9 -15 1 -23 -8 -8 -11 -6 -10 7 3 29 -30 29 -35 0 -6 -28 14 -41
72 -49 19 -3 43 -8 53 -12 13 -6 16 -3 11 9 -7 18 7 21 22 6 11 -11 124 -20
274 -23 47 -1 90 -6 96 -10 7 -4 15 0 18 9 5 14 9 14 22 3 17 -14 104 -19 104
-6 0 4 8 4 18 -1 9 -6 38 -9 65 -8 28 2 47 -2 47 -8 0 -6 6 -3 13 6 9 11 18
14 27 8 8 -5 25 -7 37 -3 16 3 23 1 23 -8 0 -11 2 -11 9 0 8 13 12 13 26 1 14
-12 18 -12 26 1 6 9 12 10 17 4 8 -12 111 -14 129 -2 6 4 14 4 17 -1 3 -5 71
-7 151 -5 95 2 153 0 166 -8 15 -8 19 -8 15 0 -9 14 9 14 36 0 15 -8 22 -8 28
1 5 8 10 9 14 1 5 -7 15 -7 32 -1 30 12 37 12 31 3 -3 -5 207 -7 466 -5 260 1
496 2 526 2 30 0 63 -2 72 -5 10 -4 27 -1 39 5 11 6 20 7 20 2 0 -10 49 -9 66
0 10 6 45 4 59 -3 6 -3 24 -4 40 -2 61 6 270 9 280 4 17 -9 50 -9 62 1 7 5 17
6 24 2 19 -11 69 -14 69 -4 0 6 31 9 75 7 41 -1 75 -6 75 -11 0 -6 5 -5 11 1
8 8 19 9 38 2 16 -7 27 -7 29 0 2 5 14 6 32 1 24 -7 28 -6 23 7 -5 12 -2 13
13 5 10 -5 40 -9 66 -8 26 2 45 -1 42 -6 -3 -4 -1 -8 5 -8 5 0 13 5 16 11 4 5
17 9 28 7 12 -1 28 2 36 6 11 7 13 5 8 -8 -4 -9 -3 -15 2 -11 23 13 255 21
294 9 9 -3 17 -1 17 5 0 6 7 8 15 5 8 -3 20 -2 27 2 20 13 48 15 48 5 0 -9 81
-6 128 4 12 3 22 2 22 -2 0 -5 11 -8 25 -8 15 0 25 6 25 15 0 13 2 13 9 1 8
-12 16 -13 44 -4 20 6 41 7 50 2 9 -6 18 -5 22 0 3 5 32 8 65 6 52 -4 58 -2
54 13 -4 11 -3 13 3 5 5 -7 46 -11 121 -11 96 1 112 3 112 17 1 14 2 14 10 -1
8 -13 16 -15 43 -7 21 6 33 6 35 -1 4 -12 23 -14 21 -2 -3 19 2 23 15 13 10
-8 21 -9 33 -3 10 5 39 8 66 7 29 -2 47 2 47 9 0 7 3 7 8 1 10 -14 32 -17 32
-4 0 5 5 7 10 4 14 -8 52 4 45 15 -3 5 8 11 25 15 16 4 30 11 30 16 0 6 4 8 9
5 5 -4 21 17 35 46 26 52 26 52 26 315 0 207 -3 271 -14 298 -23 55 -76 126
-88 119 -7 -4 -8 -2 -4 4 8 14 -102 165 -114 157 -6 -3 -8 0 -5 7 6 17 -332
471 -345 463 -6 -4 -7 1 -3 11 4 11 2 15 -4 11 -6 -4 -10 1 -9 11 0 9 -5 16
-12 14 -6 -1 -11 3 -10 10 2 7 -2 12 -9 13 -6 0 -15 4 -20 9 -5 5 -3 6 5 2 19
-11 14 2 -14 40 -14 18 -30 31 -35 28 -5 -3 -6 1 -3 9 3 8 0 18 -7 23 -8 4
-10 3 -5 -4 11 -18 0 -14 -15 5 -10 11 -10 14 -1 9 19 -11 14 2 -14 40 -14 18
-30 32 -34 29 -5 -3 -12 0 -16 6 -5 8 -3 9 6 4 8 -5 11 -3 8 6 -3 8 -11 13
-17 11 -6 -1 -10 1 -9 5 4 14 -23 54 -32 48 -5 -3 -12 0 -16 6 -4 8 -3 9 4 5
22 -13 12 6 -26 53 -21 25 -60 78 -87 116 -61 87 -106 141 -117 137 -5 -1 -8
3 -6 10 3 12 -49 89 -64 96 -5 2 -8 8 -8 14 0 5 -20 35 -44 67 -33 43 -50 57
-69 57 -14 0 -23 -4 -20 -8 2 -5 1 -15 -4 -21 -4 -7 0 -5 9 5 11 13 19 15 24
7 3 -6 1 -15 -6 -19 -10 -6 -9 -9 0 -15 10 -6 10 -10 -2 -19 -8 -6 -20 -20
-27 -31 -11 -19 -12 -19 -6 3 7 25 -12 27 -31 3 -12 -15 -44 -9 -44 9 0 5 9
10 20 10 11 0 20 4 20 9 0 17 -18 21 -32 8 -7 -8 -29 -14 -47 -15 -19 0 -38
-7 -42 -14 -6 -8 -9 -2 -9 20 0 17 5 32 10 32 6 0 10 8 9 18 0 12 -2 13 -6 3
-4 -10 -10 -5 -19 15 l-13 29 1 -37 c3 -41 -4 -54 -22 -43 -9 6 -9 9 0 15 7 4
9 13 6 19 -15 24 -26 9 -27 -36 l-2 -48 -6 53 c-7 54 -33 90 -39 53 -4 -22
-39 -35 -46 -17 -2 6 -5 3 -5 -6 -1 -10 -5 -18 -10 -18 -6 0 -9 11 -8 24 1 14
-2 24 -8 23 -5 -1 -10 -12 -10 -24 1 -27 -10 -30 -19 -7 -11 28 -6 53 11 63
10 5 15 12 11 16 -10 10 -46 -17 -41 -32 6 -15 -20 -43 -39 -43 -8 0 -19 8
-26 18 -23 32 -97 14 -115 -28 -4 -8 -4 3 0 25 7 51 16 60 42 46 15 -9 27 -9
41 -1 15 8 20 8 20 -1 0 -7 11 0 25 15 13 14 28 26 33 26 7 0 32 56 32 73 0 4
-9 7 -21 7 -11 0 -17 -5 -14 -10 4 -6 11 -8 16 -5 5 4 9 2 9 -3 0 -13 -47 -62
-60 -62 -5 0 -10 -8 -11 -17 0 -16 -1 -16 -8 1 -7 18 -8 18 -14 3 -8 -21 -46
-22 -53 -2 -4 8 -10 15 -15 15 -5 0 -9 -7 -9 -15 0 -8 -7 -15 -15 -15 -18 0
-20 27 -2 33 6 2 9 8 4 12 -7 8 -77 -62 -77 -76 0 -4 7 -9 15 -13 11 -4 15 1
15 19 0 16 6 25 15 25 8 0 15 -9 15 -20 0 -11 -7 -23 -15 -26 -8 -4 -15 -19
-15 -35 0 -22 -4 -27 -16 -22 -11 4 -12 9 -5 16 19 19 12 27 -21 27 -26 1 -30
3 -16 10 13 8 14 14 5 35 -8 17 -18 24 -29 21 -10 -2 -18 0 -18 5 0 18 -28 9
-33 -11 -8 -30 -35 -26 -29 5 3 18 0 25 -11 25 -23 0 -30 -17 -10 -24 15 -6
15 -8 3 -16 -10 -6 -23 -4 -38 6 -31 21 -38 12 -16 -21 13 -20 19 -23 23 -14
8 20 30 22 37 4 4 -8 12 -15 20 -15 8 0 14 -7 14 -15 0 -8 -7 -15 -15 -15 -8
0 -15 7 -15 16 0 8 -5 12 -11 9 -15 -10 19 -44 39 -40 10 2 25 6 35 10 20 8
21 2 6 -27 -6 -11 -9 -22 -6 -24 2 -3 12 11 21 31 15 31 36 40 36 15 0 -16
-58 -70 -62 -58 -3 8 -7 6 -10 -4 -4 -9 9 -33 33 -63 21 -26 39 -51 39 -55 0
-5 15 -26 34 -48 25 -30 36 -38 45 -29 18 18 37 16 38 -4 1 -9 -5 -23 -13 -30
-11 -9 -11 -15 -3 -25 6 -8 16 -11 22 -7 5 3 7 1 3 -5 -9 -15 53 -104 66 -96
7 4 8 2 4 -5 -4 -6 2 -26 14 -44 l22 -32 -24 26 c-12 15 -70 91 -127 170 -58
79 -150 204 -205 278 -56 73 -110 145 -120 160 -11 14 -36 49 -56 76 -21 28
-133 181 -251 340 -117 160 -238 322 -269 360 -35 43 -56 78 -55 92 1 12 -2
20 -7 17 -5 -4 -7 -12 -4 -20 8 -20 1 -18 -52 20 -26 19 -70 44 -97 55 -28 11
-45 20 -38 20 6 1 19 4 28 7 10 4 15 2 13 -6 -2 -7 4 -15 12 -17 13 -4 13 -3
0 6 -13 10 -13 11 0 11 12 1 12 2 -2 10 -11 7 -26 7 -44 0 -18 -7 -44 -7 -82
0 -63 11 -213 13 -314 3 l-68 -6 0 -590 c0 -325 -2 -588 -4 -586 -2 2 -7 173
-11 379 -5 327 -8 377 -22 387 -9 7 -21 9 -27 5 -7 -4 -2 -8 12 -10 43 -6 22
-19 -33 -20 -30 0 -55 4 -55 9 0 5 12 9 28 9 24 1 25 2 8 12 -14 8 -24 8 -37
-1 -11 -6 -26 -11 -34 -11 -8 0 -15 -4 -15 -10 0 -5 -18 -10 -39 -10 -37 0
-51 -11 -51 -41 0 -10 32 0 41 13 3 5 23 9 45 8 74 -1 89 0 130 6 l41 6 -5
-31 c-6 -43 -21 -49 -28 -12 -7 35 -29 41 -37 11 -3 -13 -11 -18 -20 -14 -23
9 -33 -17 -12 -33 18 -12 18 -13 1 -13 -15 0 -52 15 -65 26 -3 3 4 11 15 18
16 12 17 17 5 28 -11 10 -14 10 -18 1 -3 -7 -15 -13 -28 -13 -12 0 -25 -6 -28
-14 -3 -7 -17 -14 -31 -13 -20 0 -26 4 -26 22 0 13 6 25 13 28 6 2 9 8 5 12
-13 13 -38 -4 -38 -26 0 -12 -5 -19 -12 -16 -16 5 -11 47 8 68 8 8 14 21 14
27 0 7 7 12 15 12 17 0 19 18 5 40 -7 12 -12 7 -25 -23 -8 -20 -20 -37 -25
-37 -6 0 -10 -12 -10 -26 l0 -26 -20 23 -20 24 -20 -24 c-29 -33 -25 -40 18
-34 35 5 36 5 17 -10 -23 -18 -55 -22 -55 -7 0 6 -18 10 -41 10 -38 0 -39 1
-24 17 14 13 18 14 25 3 7 -11 11 -10 24 3 9 8 16 22 16 29 0 8 -4 7 -11 -4
-13 -24 -29 -23 -29 1 0 10 10 22 23 26 l22 8 -22 4 c-14 3 -23 12 -23 23 0
23 -13 32 -34 24 -17 -7 -22 -44 -6 -44 5 0 7 7 4 15 -4 9 0 15 10 15 9 0 16
-4 16 -9 0 -5 3 -16 6 -25 5 -12 0 -16 -17 -16 -18 0 -20 -3 -11 -12 17 -17
15 -28 -4 -28 -9 0 -24 10 -34 22 l-17 22 -7 -22 c-4 -12 -12 -22 -17 -22 -5
0 -9 -7 -9 -16 0 -17 23 -44 38 -44 6 0 12 -7 16 -15 3 -8 0 -15 -7 -15 -19 1
-57 36 -59 57 -2 10 -5 -133 -8 -317 -3 -195 -6 119 -8 750 -2 984 -8 2006
-11 2038 -2 20 -21 13 -21 -8 0 -11 -4 -20 -9 -20 -5 0 -8 11 -7 25 0 16 7 25
18 25 14 0 17 11 17 70 0 38 2 79 6 90 8 27 -4 25 -39 -5 -20 -17 -24 -25 -13
-25 8 0 18 6 20 13 3 6 6 2 6 -11 1 -13 -3 -20 -9 -17 -5 3 -10 -3 -10 -14 0
-12 5 -21 10 -21 6 0 10 -15 9 -32 0 -28 -2 -30 -9 -13 -8 19 -9 19 -9 -2 -1
-17 -6 -20 -22 -16 -20 6 -20 7 -5 18 24 18 20 23 -19 31 -21 4 -35 12 -35 20
0 11 4 12 19 4 32 -16 43 -13 29 10 -7 11 -21 20 -30 20 -10 0 -18 5 -18 10 0
18 -91 12 -106 -7 -13 -17 -15 -17 -28 0 -9 12 -27 17 -60 17 -44 0 -46 -1
-46 -30 0 -28 -2 -30 -40 -30 -38 0 -40 2 -40 30 0 28 -2 30 -40 30 -22 0 -40
5 -40 10 0 6 -13 10 -30 10 -20 0 -30 5 -30 15 0 21 -18 19 -23 -2 -3 -10 -5
1 -6 25 -1 31 3 42 14 42 11 0 15 11 15 40 0 30 -4 40 -16 40 -14 0 -15 25
-12 215 2 118 0 207 -4 197 -4 -9 -7 -160 -7 -334 -1 -204 -5 -318 -11 -318
-6 0 -11 -306 -13 -882 -2 -776 -2 -731 -5 372 l-2 1255 -23 40 c-13 22 -52
77 -88 121 -35 45 -82 105 -104 134 -22 29 -45 57 -50 64 -6 6 -40 48 -78 92
-55 67 -64 83 -50 88 9 4 20 1 25 -6 6 -10 8 -8 8 5 0 9 5 17 11 17 5 0 8 -4
5 -9 -4 -5 3 -7 15 -4 19 5 19 7 -9 18 -36 16 -47 31 -27 38 10 4 12 1 8 -10
-4 -10 -2 -14 5 -9 6 3 13 2 17 -4 3 -5 16 -10 28 -9 20 1 19 2 -6 12 -16 6
-26 16 -23 24 7 16 -26 17 -41 2 -8 -8 -16 -8 -30 1 -16 10 -16 11 0 6 9 -3
17 -1 17 4 0 6 -6 10 -14 10 -28 0 -26 -19 4 -40 17 -12 29 -25 26 -28 -3 -2
-12 1 -21 8 -9 7 -19 10 -22 6 -4 -4 -1 -11 7 -16 8 -6 11 -10 7 -10 -4 0 -25
18 -46 40 -40 42 -60 48 -100 27z m596 -1174 c-3 -10 -5 -2 -5 17 0 19 2 27 5
18 2 -10 2 -26 0 -35z m0 -160 c-3 -10 -5 -2 -5 17 0 19 2 27 5 18 2 -10 2
-26 0 -35z m-20 -75 c-3 -7 -5 -2 -5 12 0 14 2 19 5 13 2 -7 2 -19 0 -25z m0
-105 c-2 -16 -4 -3 -4 27 0 30 2 43 4 28 2 -16 2 -40 0 -55z m428 -3 c-3 -5
-14 -10 -23 -10 -15 0 -15 2 -2 10 20 13 33 13 25 0z m-58 -26 c-3 -3 -12 -4
-19 -1 -8 3 -5 6 6 6 11 1 17 -2 13 -5z m-37 -84 c0 -5 -4 -10 -10 -10 -5 0
-10 5 -10 10 0 6 5 10 10 10 6 0 10 -4 10 -10z m-353 -1547 c-3 -10 -5 -2 -5
17 0 19 2 27 5 18 2 -10 2 -26 0 -35z m0 -165 c-2 -13 -4 -3 -4 22 0 25 2 35
4 23 2 -13 2 -33 0 -45z m763 -612 c0 -6 -5 -5 -12 2 -7 7 -20 12 -30 12 -20
0 -25 26 -5 33 12 5 46 -30 47 -47z m160 -7 c0 -6 7 -9 15 -5 9 3 15 0 15 -9
0 -18 -10 -19 -32 -1 -20 15 -23 26 -8 26 6 0 10 -5 10 -11z m-60 -18 c0 -8
-90 -3 -99 5 -2 2 19 4 47 4 29 0 52 -4 52 -9z m137 -17 c-3 -3 -12 -4 -19 -1
-8 3 -5 6 6 6 11 1 17 -2 13 -5z m-320 -36 c-3 -7 -5 -2 -5 12 0 14 2 19 5 13
2 -7 2 -19 0 -25z m353 0 c0 -29 -2 -31 -15 -17 -9 9 -13 23 -9 32 10 28 24
19 24 -15z m74 1 c-8 -14 -24 -10 -24 6 0 9 6 12 15 9 8 -4 12 -10 9 -15z
m-314 -23 c0 -2 -7 -6 -15 -10 -8 -3 -15 -1 -15 4 0 6 7 10 15 10 8 0 15 -2
15 -4z m-109 -58 c-8 -20 -9 -18 -9 15 1 26 4 34 10 24 4 -9 4 -26 -1 -39z
m149 16 c0 -8 -4 -14 -10 -14 -5 0 -10 9 -10 21 0 11 5 17 10 14 6 -3 10 -13
10 -21z m-110 1 c0 -8 -2 -15 -4 -15 -2 0 -6 7 -10 15 -3 8 -1 15 4 15 6 0 10
-7 10 -15z m70 -5 c0 -11 -4 -20 -8 -20 -4 0 -8 9 -9 20 -1 11 2 20 8 20 5 0
9 -9 9 -20z m90 16 c0 -11 -19 -15 -25 -6 -3 5 1 10 9 10 9 0 16 -2 16 -4z
m55 -6 c-3 -5 -10 -10 -16 -10 -5 0 -9 5 -9 10 0 6 7 10 16 10 8 0 12 -4 9
-10z m-130 -90 c3 -5 1 -10 -4 -10 -6 0 -11 5 -11 10 0 6 2 10 4 10 3 0 8 -4
11 -10z m265 0 c0 -5 -5 -10 -11 -10 -5 0 -7 5 -4 10 3 6 8 10 11 10 2 0 4 -4
4 -10z m1701 -313 c-6 -8 -8 -17 -4 -20 3 -4 -1 -7 -10 -7 -20 0 -21 6 -4 25
15 18 33 20 18 2z m229 -52 c28 -16 9 -21 -21 -5 -13 7 -25 8 -37 1 -9 -6 -11
-11 -4 -11 6 0 12 -5 12 -10 0 -6 -6 -10 -12 -9 -31 4 -48 -2 -48 -16 0 -8 -4
-15 -10 -15 -5 0 -10 9 -10 20 0 12 7 20 18 20 10 0 25 9 35 20 20 23 42 25
77 5z m544 -16 c-3 -5 -11 -9 -17 -8 -8 0 -8 2 1 6 10 4 10 8 0 21 -12 15 -11
16 4 3 10 -7 15 -17 12 -22z m-321 14 c7 -12 -11 -53 -23 -53 -17 0 -23 28 -8
44 15 17 25 20 31 9z m-149 -18 c-7 -17 -30 -20 -39 -6 -4 8 9 15 37 20 4 0 5
-6 2 -14z m-84 -25 c0 -16 -4 -30 -9 -30 -5 0 -9 14 -9 30 1 17 5 30 10 30 4
0 8 -13 8 -30z m120 5 c0 -8 -7 -15 -15 -15 -8 0 -15 7 -15 15 0 8 7 15 15 15
8 0 15 -7 15 -15z m476 -27 c16 -17 24 -28 17 -24 -6 3 -14 2 -18 -4 -8 -13
-85 -13 -85 1 0 6 10 8 23 5 12 -3 16 -3 10 0 -18 8 -16 24 5 40 9 7 17 14 18
14 0 0 13 -14 30 -32z m-756 8 c0 -11 -19 -15 -25 -6 -3 5 1 10 9 10 9 0 16
-2 16 -4z m330 -11 c0 -8 -9 -15 -20 -15 -11 0 -20 7 -20 15 0 8 9 15 20 15
11 0 20 -7 20 -15z m-210 1 c0 -3 -4 -8 -10 -11 -5 -3 -10 -1 -10 4 0 6 5 11
10 11 6 0 10 -2 10 -4z m338 -13 c-2 -10 -12 -19 -23 -20 -11 -2 -14 0 -7 3 6
3 12 12 12 20 0 8 5 14 11 14 6 0 9 -8 7 -17z m-470 -17 c19 3 23 2 13 -5 -7
-5 -11 -13 -7 -19 3 -6 1 -12 -5 -14 -6 -2 -8 -14 -4 -31 4 -15 10 -25 14 -22
4 2 8 -2 8 -10 0 -25 -25 3 -32 36 -4 16 -10 27 -14 24 -5 -2 -17 5 -27 17
-19 21 -19 21 4 9 14 -8 22 -8 22 -1 0 5 -5 10 -11 10 -5 0 -7 5 -3 12 6 9 9
9 11 1 2 -6 16 -9 31 -7z m292 10 c0 -2 -9 -6 -20 -9 -11 -3 -18 -1 -14 4 5 9
34 13 34 5z m47 -12 c-3 -3 -12 -4 -19 -1 -8 3 -5 6 6 6 11 1 17 -2 13 -5z
m53 2 c0 -3 -4 -8 -10 -11 -5 -3 -10 -1 -10 4 0 6 5 11 10 11 6 0 10 -2 10 -4z
m103 -16 c-5 -20 -33 -29 -33 -10 0 7 25 27 37 30 0 0 -1 -9 -4 -20z m-385
-15 c-3 -3 -9 2 -12 12 -6 14 -5 15 5 6 7 -7 10 -15 7 -18z m697 3 c50 -57 68
-82 52 -69 -20 16 -23 1 -6 -30 8 -16 13 -18 25 -8 8 6 14 8 14 3 0 -5 13 -24
30 -42 31 -36 31 -58 0 -58 -18 0 -18 2 -5 15 12 12 11 18 -7 43 -11 16 -26
27 -33 24 -7 -2 -18 1 -24 7 -8 8 -11 8 -11 -1 0 -7 -4 -12 -9 -12 -5 0 -8 15
-6 33 1 17 -2 37 -7 44 -5 7 -7 17 -3 23 3 5 -1 10 -9 10 -9 0 -16 -4 -16 -9
0 -5 -9 -11 -20 -14 -16 -4 -20 0 -20 20 0 23 2 24 17 12 15 -13 16 -12 11 9
-4 12 -3 22 1 22 3 0 15 -10 26 -22z m-645 2 c0 -5 -2 -10 -4 -10 -3 0 -8 5
-11 10 -3 6 -1 10 4 10 6 0 11 -4 11 -10z m428 -10 c-7 -11 -19 -20 -27 -20
-11 0 -10 5 5 19 25 26 37 26 22 1z m152 10 c0 -5 -14 -10 -31 -10 -17 0 -28
4 -24 10 3 6 17 10 31 10 13 0 24 -4 24 -10z m-220 -9 c0 -6 -4 -13 -10 -16
-5 -3 -10 1 -10 9 0 9 5 16 10 16 6 0 10 -4 10 -9z m-463 -7 c-3 -3 -12 -4
-19 -1 -8 3 -5 6 6 6 11 1 17 -2 13 -5z m400 -10 c-3 -3 -12 -4 -19 -1 -8 3
-5 6 6 6 11 1 17 -2 13 -5z m256 -11 c-7 -2 -21 -2 -30 0 -10 3 -4 5 12 5 17
0 24 -2 18 -5z m-553 -13 c0 -5 -4 -10 -10 -10 -5 0 -10 5 -10 10 0 6 5 10 10
10 6 0 10 -4 10 -10z m270 0 c0 -5 -2 -10 -4 -10 -3 0 -8 5 -11 10 -3 6 -1 10
4 10 6 0 11 -4 11 -10z m102 -15 c-4 -26 -22 -35 -22 -12 0 10 18 37 26 37 1
0 -1 -11 -4 -25z m-192 11 c0 -9 -30 -14 -35 -6 -4 6 3 10 14 10 12 0 21 -2
21 -4z m310 -26 c-20 -13 -33 -13 -25 0 3 6 14 10 23 10 15 0 15 -2 2 -10z
m90 0 c0 -5 -7 -7 -15 -4 -8 4 -15 8 -15 10 0 2 7 4 15 4 8 0 15 -4 15 -10z
m-170 -24 c0 -8 -4 -18 -10 -21 -5 -3 -10 3 -10 14 0 12 5 21 10 21 6 0 10 -6
10 -14z m110 -30 c0 -3 -4 -8 -10 -11 -5 -3 -10 -1 -10 4 0 6 5 11 10 11 6 0
10 -2 10 -4z m-546 -102 c3 -8 2 -12 -4 -9 -6 3 -10 10 -10 16 0 14 7 11 14
-7z m885 -58 c0 -7 -2 -6 -6 2 -2 6 -10 9 -15 6 -7 -4 -8 -2 -4 5 4 6 4 18 -1
24 -4 7 0 4 10 -6 9 -11 17 -24 16 -31z m-861 9 c-3 -3 -9 2 -12 12 -6 14 -5
15 5 6 7 -7 10 -15 7 -18z m931 -99 c1 -6 -6 -11 -14 -12 -12 -2 -14 1 -5 11
8 9 8 15 0 20 -5 3 -10 11 -10 18 0 12 27 -22 29 -37z m-833 -66 c20 -27 42
-46 47 -43 6 4 7 1 3 -6 -5 -8 8 -32 34 -62 23 -28 40 -52 37 -55 -4 -4 -44
47 -155 198 -7 10 -11 18 -9 18 3 0 22 -22 43 -50z m832 15 c-3 -3 -9 2 -12
12 -6 14 -5 15 5 6 7 -7 10 -15 7 -18z m-2405 -131 c29 -39 89 -123 134 -185
46 -63 257 -355 471 -649 514 -709 551 -761 512 -725 -18 17 -30 25 -27 19 8
-15 -20 -27 -29 -13 -3 5 -13 9 -22 7 -10 -1 -23 1 -29 5 -8 5 -13 3 -13 -5 0
-9 -3 -9 -10 2 -8 13 -10 13 -10 -2 0 -16 -9 -17 -40 -5 -31 12 -150 15 -150
4 0 -7 -4 -7 -12 1 -16 16 -45 15 -52 0 -3 -9 -9 -7 -20 6 -9 11 -16 15 -16 9
0 -6 -13 -13 -30 -15 -22 -3 -30 -1 -30 11 0 14 -1 14 -10 1 -5 -8 -10 -10
-10 -5 0 6 -8 1 -17 -10 -13 -16 -15 -17 -10 -2 7 20 -13 23 -32 5 -11 -11
-12 -8 -7 12 7 24 6 24 -8 6 -10 -12 -22 -17 -38 -13 -12 4 -29 1 -37 -6 -12
-10 -14 -9 -8 6 3 9 2 17 -3 17 -6 0 -10 -7 -10 -15 0 -11 -5 -12 -24 -5 -13
5 -27 6 -30 2 -10 -9 -37 -11 -31 -2 3 4 -5 10 -16 13 -14 4 -19 1 -16 -7 3
-7 -1 -13 -9 -13 -8 0 -14 4 -14 9 0 5 -6 6 -12 1 -24 -14 -39 -11 -48 10 -7
17 -9 18 -9 5 -1 -10 -8 -18 -16 -18 -9 0 -12 6 -9 18 5 16 5 16 -6 -1 -6 -9
-8 -23 -4 -30 8 -13 -25 10 -39 28 -5 6 -5 -1 -1 -15 6 -24 6 -24 -12 -9 -14
12 -35 15 -83 12 -50 -2 -68 0 -83 13 -10 10 -18 12 -18 6 0 -6 6 -13 13 -15
6 -3 -1 -4 -18 -2 -16 1 -36 -2 -43 -8 -9 -7 -11 -6 -6 7 3 9 14 16 23 17 10
0 11 2 4 6 -10 4 -13 176 -12 816 0 727 2 810 15 792 9 -11 39 -52 67 -91z
m1692 -4 l20 -25 -22 19 c-13 11 -23 24 -23 29 0 6 1 8 3 6 1 -2 11 -15 22
-29z m858 -55 c-3 -9 -8 -14 -10 -11 -3 3 -2 9 2 15 9 16 15 13 8 -4z m-824
-39 c-3 -3 -11 5 -18 17 -13 21 -12 21 5 5 10 -10 16 -20 13 -22z m61 -78 c19
-24 26 -37 17 -29 -19 15 -61 71 -54 71 2 0 19 -19 37 -42z m55 -74 c9 -15 12
-23 6 -20 -11 7 -35 46 -28 46 3 0 12 -12 22 -26z m45 -65 c15 -28 5 -23 -15
7 -9 15 -12 23 -6 20 6 -4 16 -16 21 -27z m40 -54 c14 -19 14 -19 -2 -6 -10 7
-18 18 -18 24 0 6 1 8 3 6 1 -2 9 -13 17 -24z m914 -31 c3 -8 2 -12 -4 -9 -6
3 -10 10 -10 16 0 14 7 11 14 -7z m-883 -11 c13 -16 12 -17 -3 -4 -17 13 -22
21 -14 21 2 0 10 -8 17 -17z m-1074 -1149 c-3 -3 -12 -4 -19 -1 -8 3 -5 6 6 6
11 1 17 -2 13 -5z"/>
<path d="M6950 3866 c0 -16 27 -29 35 -16 3 5 -4 14 -15 20 -16 8 -20 8 -20
-4z"/>
<path d="M5275 1719 c-4 -6 -5 -12 -2 -15 2 -3 7 2 10 11 7 17 1 20 -8 4z"/>
<path d="M5165 1710 c3 -5 8 -10 11 -10 2 0 4 5 4 10 0 6 -5 10 -11 10 -5 0
-7 -4 -4 -10z"/>
<path d="M2930 8482 c0 -5 10 -17 23 -28 22 -19 22 -19 4 2 -9 11 -14 24 -10
27 3 4 1 7 -5 7 -7 0 -12 -4 -12 -8z"/>
<path d="M8039 8475 c-23 -13 -234 -271 -543 -665 -49 -63 -158 -200 -241
-305 -83 -104 -177 -223 -209 -263 -33 -42 -62 -70 -68 -66 -7 4 -8 2 -4 -5
10 -15 -122 -184 -136 -175 -7 4 -8 2 -4 -4 8 -13 -81 -135 -93 -128 -4 3 -8
0 -8 -7 0 -21 -195 -267 -206 -260 -6 3 -7 1 -3 -6 9 -14 -12 -43 -25 -35 -5
3 -6 -1 -4 -9 6 -13 -31 -54 -43 -50 -4 2 -7 -3 -7 -10 0 -22 -185 -258 -197
-251 -7 4 -8 2 -4 -5 9 -14 -52 -94 -65 -86 -5 4 -6 0 -4 -7 3 -8 -6 -25 -21
-38 l-27 -25 13 25 c12 23 12 24 -4 11 -9 -8 -14 -21 -11 -28 6 -17 -173 -255
-186 -248 -4 3 -11 0 -15 -6 -4 -8 -3 -9 4 -5 21 13 13 -5 -24 -50 -20 -24
-41 -41 -47 -37 -6 3 -7 1 -3 -5 4 -6 -22 -49 -59 -96 -36 -47 -65 -88 -65
-93 0 -4 32 -50 70 -102 38 -52 67 -98 64 -103 -7 -11 16 -39 26 -33 5 3 22
-12 39 -34 32 -40 39 -57 19 -45 -7 4 -8 3 -4 -5 4 -6 11 -9 16 -6 12 8 62
-63 54 -78 -4 -6 -3 -9 1 -4 5 4 16 0 26 -9 16 -14 23 -7 106 97 48 61 104
131 123 154 19 23 65 80 102 126 180 225 235 294 253 318 11 14 80 102 155
195 74 92 144 180 155 195 11 14 83 104 160 199 169 210 188 233 292 364 45
57 110 137 144 178 33 41 112 138 173 215 62 77 130 161 152 186 21 26 59 73
84 104 25 31 75 94 113 138 112 135 107 113 107 480 0 341 -3 367 -51 401 -28
19 -36 19 -70 1z m-2149 -3156 c0 -6 -4 -7 -10 -4 -5 3 -10 11 -10 16 0 6 5 7
10 4 6 -3 10 -11 10 -16z"/>
<path d="M3075 8460 c3 -5 13 -10 20 -10 8 0 21 -12 28 -26 9 -17 17 -23 21
-15 4 6 17 11 29 11 18 0 19 -2 7 -10 -9 -6 -10 -10 -3 -10 6 0 15 5 18 10 3
6 16 10 28 11 l22 0 -22 9 c-13 5 -35 5 -55 -1 -41 -11 -41 -11 -33 1 3 6 0
10 -7 11 -7 0 -4 5 7 10 19 9 18 9 -2 5 -13 -2 -26 0 -29 5 -3 5 -12 9 -20 9
-8 0 -12 -4 -9 -10z"/>
<path d="M4721 8439 c-17 -16 -35 -47 -41 -67 -14 -49 -19 -3223 -5 -3190 5
13 12 25 15 28 3 3 14 19 24 35 11 17 73 101 138 188 65 87 115 163 112 169
-4 7 -2 8 4 4 6 -3 16 2 21 13 6 11 17 25 24 33 15 16 228 302 277 373 19 28
38 52 41 55 6 6 117 153 139 186 8 12 43 58 77 104 56 73 62 86 58 118 -3 29
-2 33 6 19 6 -9 7 -22 4 -27 -3 -6 -2 -10 4 -10 16 0 31 34 25 57 -3 12 -1 24
5 27 7 4 8 1 5 -8 -3 -9 -2 -16 4 -16 10 0 26 29 23 43 -1 5 2 6 7 3 9 -5 48
41 49 57 1 5 12 21 25 35 51 57 88 111 85 124 -2 7 -2 10 0 6 8 -14 23 -9 23
7 0 8 16 33 36 54 31 35 34 43 24 63 -10 21 -10 21 3 6 8 -10 17 -15 21 -11 3
3 -1 15 -11 25 -9 10 -11 18 -5 18 6 0 14 -5 18 -11 4 -7 15 -1 30 17 28 35
30 46 7 37 -13 -5 -12 -1 5 17 25 27 21 40 -5 19 -16 -13 -16 -12 0 14 10 16
16 35 13 43 -3 9 -1 12 4 9 6 -3 10 -15 10 -25 0 -10 5 -22 11 -25 6 -5 4 -12
-8 -20 -10 -7 -15 -17 -10 -21 4 -4 8 -5 10 -3 1 2 16 22 33 44 26 34 30 48
29 92 -1 52 -1 52 18 32 10 -11 16 -23 12 -27 -3 -3 -10 -1 -14 6 -5 8 -8 0
-8 -19 0 -29 1 -30 14 -13 7 11 20 27 28 36 7 9 22 29 32 45 9 15 20 30 23 33
3 3 32 41 65 85 33 44 64 83 70 87 5 4 6 11 1 15 -7 8 -30 -17 -39 -41 -2 -6
-8 -8 -12 -4 -4 4 1 20 10 36 17 28 17 30 -6 65 -13 20 -27 37 -31 37 -14 0
-8 -21 13 -52 19 -27 20 -32 8 -56 -8 -15 -20 -33 -27 -41 -7 -7 -10 -16 -7
-19 3 -3 12 3 20 14 13 17 14 17 15 2 0 -9 -16 -29 -35 -44 -19 -14 -33 -29
-31 -33 2 -3 -6 -20 -18 -37 l-21 -31 -2 51 c-1 36 1 45 7 31 9 -19 9 -19 16
3 4 14 12 21 20 18 17 -6 28 10 14 19 -6 4 -18 1 -26 -6 -11 -9 -18 -9 -26 -1
-9 9 -8 12 6 12 26 0 46 25 46 59 0 28 -3 31 -30 31 -16 0 -30 -5 -30 -11 0
-8 -24 -9 -80 -4 -56 5 -80 4 -80 -4 0 -6 -5 -11 -11 -11 -8 0 -8 5 1 15 7 8
16 15 20 15 21 0 70 60 70 86 0 27 1 27 14 8 15 -19 15 -19 30 1 14 18 15 18
16 3 0 -10 5 -18 10 -18 15 0 12 43 -4 66 -15 19 -15 19 -30 -1 -15 -20 -15
-20 -16 3 0 12 -4 22 -10 22 -5 0 -10 -10 -10 -22 -1 -45 -17 5 -23 69 -4 47
-2 63 9 67 8 3 14 15 14 26 0 23 -2 23 39 9 27 -10 35 -8 52 7 17 15 22 16 29
4 5 -8 13 -11 17 -6 4 5 2 11 -4 13 -7 3 -13 13 -13 23 0 10 6 20 13 23 6 2 8
8 4 13 -4 5 -12 2 -17 -6 -7 -12 -11 -12 -25 0 -15 12 -16 11 -10 -13 4 -14 2
-34 -4 -44 -6 -10 -11 -13 -11 -7 0 7 -9 14 -20 17 -11 3 -20 10 -20 17 0 7 9
14 20 17 23 6 26 19 8 27 -21 8 21 36 54 36 16 0 37 -5 48 -12 10 -7 22 -9 26
-5 13 12 -4 20 -56 25 -27 2 -50 9 -50 15 0 13 114 1 118 -13 5 -15 42 -12 42
4 0 7 -9 16 -20 19 -12 3 -20 14 -20 25 0 11 -5 22 -10 24 -6 2 -12 13 -13 26
-1 22 -7 22 -52 5 -6 -2 -9 14 -7 42 4 39 7 45 27 45 18 0 22 -4 18 -20 -4
-15 0 -20 15 -20 11 0 22 7 26 15 7 18 33 20 39 3 4 -10 7 -10 18 0 12 11 12
14 0 21 -8 5 -10 14 -6 21 6 10 11 9 22 -5 9 -14 16 -16 24 -8 13 13 4 33 -17
33 -8 0 -14 3 -14 8 0 17 32 52 48 52 11 0 13 3 5 11 -7 7 -21 3 -48 -12 -35
-21 -37 -21 -33 -3 2 10 18 28 35 39 30 19 48 45 21 29 -7 -4 -10 -4 -6 1 4 4
-3 16 -15 26 -30 25 -12 24 23 -1 19 -14 27 -26 23 -39 -3 -10 1 -22 7 -26 9
-5 10 -1 6 16 -6 22 -6 23 7 7 23 -28 87 -69 99 -62 5 4 -4 21 -23 40 -35 36
-65 48 -34 14 10 -11 13 -20 8 -20 -18 0 -34 27 -27 45 6 14 3 16 -17 10 -16
-4 -20 -3 -11 3 10 7 -3 23 -54 65 -58 48 -69 54 -81 41 -22 -21 -39 -17 -19
5 17 19 17 20 -13 35 -35 18 -67 10 -105 -26 -12 -13 -92 -115 -177 -228 -84
-113 -180 -240 -212 -283 -52 -68 -57 -80 -45 -95 11 -15 11 -16 -3 -4 -14 10
-20 7 -43 -22 -28 -37 -33 -52 -14 -40 7 4 8 3 4 -5 -4 -6 -11 -9 -16 -6 -4 3
-20 -11 -34 -29 -28 -37 -33 -52 -14 -40 7 5 8 3 4 -5 -5 -7 -11 -10 -14 -7
-7 7 -42 -23 -42 -36 0 -5 5 -6 10 -3 6 3 10 0 10 -7 0 -10 3 -9 9 2 6 8 8 17
6 20 -2 4 3 7 11 7 10 0 11 -4 4 -11 -13 -13 -13 -29 0 -21 6 3 7 -1 3 -10 -5
-13 -7 -14 -14 -3 -5 7 -9 9 -9 5 0 -4 -8 -3 -18 2 -13 7 -23 6 -30 -1 -14
-14 -16 -32 -3 -23 5 3 13 0 17 -7 4 -7 4 -10 -1 -6 -4 4 -15 2 -23 -5 -13
-10 -15 -9 -8 3 4 8 -4 2 -18 -15 -27 -31 -34 -51 -14 -39 7 4 8 3 4 -5 -4 -6
-11 -9 -16 -6 -12 7 -62 -63 -54 -77 4 -6 3 -8 -3 -5 -13 8 -67 -59 -58 -72 3
-5 1 -12 -5 -16 -5 -3 -10 -11 -10 -16 0 -6 5 -7 12 -3 7 5 8 3 3 -5 -5 -9
-10 -10 -18 -2 -7 7 -6 16 3 28 7 10 -4 0 -24 -22 -20 -22 -36 -44 -36 -50 1
-5 10 1 21 14 21 26 46 18 29 -9 -7 -11 -10 -11 -10 -2 0 7 -5 10 -10 7 -6 -4
-8 -10 -5 -15 3 -5 -3 -7 -13 -5 -25 4 -64 -47 -56 -72 4 -13 3 -14 -3 -5 -8
10 -16 4 -37 -23 -15 -19 -24 -40 -20 -47 4 -6 3 -8 -3 -5 -14 9 -66 -60 -57
-75 4 -6 3 -8 -4 -4 -5 3 -24 -11 -41 -33 -32 -40 -39 -57 -19 -45 7 4 8 3 4
-5 -4 -6 -11 -9 -16 -6 -7 5 -40 -38 -164 -215 -21 -30 -40 -56 -41 -58 -1 -2
-3 406 -4 905 -1 787 -4 910 -17 930 -20 31 -47 29 -83 -8z m1523 -41 c24 -10
24 -12 8 -24 -25 -18 -2 -40 26 -25 22 12 52 5 52 -11 0 -7 -5 -6 -14 1 -10 8
-20 8 -42 -4 -26 -13 -26 -15 -7 -15 12 0 24 6 26 13 4 9 7 9 15 -1 5 -7 16
-10 25 -6 9 3 17 1 17 -4 0 -6 8 -13 18 -16 9 -3 23 -16 31 -28 13 -21 11 -20
-22 5 -42 32 -53 34 -53 8 0 -11 3 -18 6 -16 3 1 10 -3 17 -10 9 -10 9 -17 -2
-31 -7 -11 -17 -16 -21 -12 -4 4 -1 16 7 25 13 16 12 17 -3 4 -12 -9 -18 -27
-18 -52 0 -22 -4 -39 -8 -39 -5 0 -14 -19 -21 -41 -20 -68 -35 -35 -23 53 7
57 10 64 11 31 1 -58 18 -55 24 5 4 41 1 50 -22 71 l-26 25 -3 -33 -3 -32 -85
4 c-89 4 -97 0 -79 -44 4 -10 0 -16 -10 -16 -11 0 -13 6 -9 21 7 21 6 21 -15
2 -28 -25 -27 -31 6 -34 14 -1 29 -5 32 -8 3 -4 -6 -4 -21 -2 -16 3 -28 1 -28
-3 0 -5 -9 -9 -21 -9 -13 0 -18 -4 -13 -12 4 -6 3 -8 -4 -4 -17 10 -23 -10 -7
-24 8 -7 15 -20 14 -29 0 -12 -2 -11 -9 4 -5 11 -9 14 -9 8 -1 -7 -6 -13 -13
-13 -6 0 -8 3 -5 7 4 3 3 11 -2 17 -6 7 18 43 65 101 41 50 84 107 96 128 21
37 48 54 29 19 -6 -10 -7 -29 -4 -40 3 -12 0 -29 -7 -37 -7 -9 -10 -19 -6 -22
12 -12 27 20 23 50 -3 21 3 33 21 48 14 10 22 19 18 19 -4 0 -2 9 4 20 13 23
12 23 44 8z m272 -226 c-4 -3 -14 2 -24 12 -16 18 -16 18 6 6 13 -6 21 -14 18
-18z m-193 -64 c-6 -31 -23 -38 -23 -10 0 16 20 46 26 39 1 -1 0 -14 -3 -29z
m-373 -18 c0 -5 -5 -10 -11 -10 -5 0 -7 5 -4 10 3 6 8 10 11 10 2 0 4 -4 4
-10z m-22 -37 c-11 -3 -15 -11 -12 -21 5 -15 4 -15 -5 -2 -15 21 -15 -4 0 -32
9 -16 8 -19 -3 -15 -7 2 -12 10 -10 16 4 21 -8 11 -18 -14 -5 -14 -17 -25 -27
-25 -17 1 -17 1 0 11 9 5 17 15 17 20 0 21 42 69 58 68 16 -1 16 -2 0 -6z
m202 -63 c0 -5 -11 -10 -25 -10 -14 0 -25 5 -25 10 0 6 11 10 25 10 14 0 25
-4 25 -10z m34 -18 c3 -5 2 -18 -1 -30 -4 -18 -12 -22 -42 -21 -33 0 -34 1
-14 11 13 6 25 19 28 29 7 20 20 25 29 11z m-270 -26 c-6 -16 -24 -23 -24 -8
0 10 22 33 27 28 2 -2 1 -11 -3 -20z m350 8 c11 -29 6 -34 -31 -34 l-36 0 23
25 c27 29 36 31 44 9z m-418 -25 c-8 -12 -12 -27 -10 -34 3 -7 1 -16 -5 -20
-6 -3 -11 -11 -11 -17 0 -7 5 -7 14 1 10 9 15 8 19 -2 7 -18 -32 -15 -44 4 -8
13 -13 6 -10 -13 0 -5 -5 -7 -11 -5 -7 1 -12 -6 -11 -17 1 -12 -2 -15 -9 -8
-6 6 6 30 38 71 45 58 71 84 40 40z m34 1 c0 -5 -5 -10 -11 -10 -5 0 -7 5 -4
10 3 6 8 10 11 10 2 0 4 -4 4 -10z m217 -132 c-3 -8 -6 -5 -6 6 -1 11 2 17 5
13 3 -3 4 -12 1 -19z m-333 4 c3 -5 -1 -9 -9 -9 -8 0 -15 4 -15 9 0 4 4 8 9 8
6 0 12 -4 15 -8z m-118 -150 c-17 -16 -18 -16 -5 5 7 12 15 20 18 17 3 -2 -3
-12 -13 -22z m24 -27 c-7 -9 -15 -13 -18 -10 -3 2 1 11 8 20 7 9 15 13 18 10
3 -2 -1 -11 -8 -20z m383 -15 c19 -23 22 -40 7 -40 -5 0 -10 7 -10 15 0 9 -9
15 -25 15 -22 0 -24 2 -13 15 17 19 21 19 41 -5z m-3 -70 c0 -11 -4 -20 -10
-20 -5 0 -10 9 -10 20 0 11 5 20 10 20 6 0 10 -9 10 -20z m40 -5 c0 -8 -4 -15
-10 -15 -5 0 -10 7 -10 15 0 8 5 15 10 15 6 0 10 -7 10 -15z m-70 -55 c0 -5
-7 -10 -15 -10 -8 0 -15 5 -15 10 0 6 7 10 15 10 8 0 15 -4 15 -10z m-500 -20
c-6 -11 -13 -20 -16 -20 -2 0 0 9 6 20 6 11 13 20 16 20 2 0 0 -9 -6 -20z
m447 -16 c-3 -3 -12 -4 -19 -1 -8 3 -5 6 6 6 11 1 17 -2 13 -5z m116 -61 c-13
-2 -33 -2 -45 0 -13 2 -3 4 22 4 25 0 35 -2 23 -4z m-143 -13 c0 -5 -7 -10
-16 -10 -8 0 -12 5 -9 10 3 6 10 10 16 10 5 0 9 -4 9 -10z m128 -10 c17 0 32
-4 32 -10 0 -16 -73 -11 -95 7 -20 15 -19 15 5 9 14 -3 40 -6 58 -6z m-657
-23 c-10 -9 -11 -8 -5 6 3 10 9 15 12 12 3 -3 0 -11 -7 -18z m709 -53 c0 -19
-4 -34 -10 -34 -11 0 -11 0 -13 46 -1 22 2 30 11 27 6 -3 12 -20 12 -39z
m-757 -69 c-3 -9 -8 -14 -10 -11 -3 3 -2 9 2 15 9 16 15 13 8 -4z m807 -12 c0
-9 -6 -13 -14 -10 -11 4 -13 1 -10 -11 5 -14 4 -14 -6 1 -9 14 -9 22 0 32 14
17 30 11 30 -12z m-257 -10 c-7 -2 -19 -2 -25 0 -7 3 -2 5 12 5 14 0 19 -2 13
-5z m135 -12 c3 -8 -1 -12 -9 -9 -7 2 -15 10 -17 17 -3 8 1 12 9 9 7 -2 15
-10 17 -17z m-135 -58 c-7 -2 -19 -2 -25 0 -7 3 -2 5 12 5 14 0 19 -2 13 -5z
m167 -32 c-6 -12 -15 -21 -20 -21 -5 0 -1 13 8 30 19 32 30 24 12 -9z m-100
-71 c0 -5 -4 -10 -10 -10 -5 0 -10 5 -10 10 0 6 5 10 10 10 6 0 10 -4 10 -10z
m10 -40 c0 -5 -4 -10 -10 -10 -5 0 -10 5 -10 10 0 6 5 10 10 10 6 0 10 -4 10
-10z m-151 -214 c-13 -29 -32 -36 -22 -8 8 22 25 44 30 39 2 -3 -2 -16 -8 -31z
m-43 -12 c-4 -9 -9 -15 -11 -12 -3 3 -3 13 1 22 4 9 9 15 11 12 3 -3 3 -13 -1
-22z m-5 -55 c-12 -13 -21 -19 -21 -14 0 11 32 46 38 41 2 -3 -5 -15 -17 -27z
m-61 -5 c0 -8 -4 -12 -10 -9 -5 3 -10 10 -10 16 0 5 5 9 10 9 6 0 10 -7 10
-16z m30 -57 c0 -2 -12 -14 -27 -28 l-28 -24 24 28 c23 25 31 32 31 24z m-362
-422 c-3 -3 -9 2 -12 12 -6 14 -5 15 5 6 7 -7 10 -15 7 -18z m18 -23 c-18 -16
-18 -16 -6 6 6 13 14 21 18 18 3 -4 -2 -14 -12 -24z m-153 -207 c-3 -9 -8 -14
-10 -11 -3 3 -2 9 2 15 9 16 15 13 8 -4z m-110 -100 c-3 -9 -8 -14 -10 -11 -3
3 -2 9 2 15 9 16 15 13 8 -4z m28 -8 c-10 -9 -11 -8 -5 6 3 10 9 15 12 12 3
-3 0 -11 -7 -18z"/>
<path d="M6120 8309 c0 -7 -10 -20 -22 -30 -11 -11 -18 -22 -14 -27 4 -4 19 7
32 23 26 32 30 45 14 45 -5 0 -10 -5 -10 -11z"/>
<path d="M5796 7883 c-6 -14 -5 -15 5 -6 7 7 10 15 7 18 -3 3 -9 -2 -12 -12z"/>
<path d="M3286 8394 c-4 -10 -1 -14 6 -12 15 5 23 28 10 28 -5 0 -13 -7 -16
-16z"/>
<path d="M3000 8393 c0 -6 8 -17 18 -26 21 -19 46 -9 32 13 -5 8 -12 11 -16 7
-4 -4 -13 -2 -21 4 -7 7 -13 7 -13 2z"/>
<path d="M3330 8390 c8 -5 20 -10 25 -10 6 0 3 5 -5 10 -8 5 -19 10 -25 10 -5
0 -3 -5 5 -10z"/>
<path d="M3310 8369 c0 -5 5 -7 10 -4 6 3 10 8 10 11 0 2 -4 4 -10 4 -5 0 -10
-5 -10 -11z"/>
<path d="M3410 8360 c0 -5 5 -10 11 -10 5 0 7 5 4 10 -3 6 -8 10 -11 10 -2 0
-4 -4 -4 -10z"/>
<path d="M3380 8350 c0 -5 5 -10 11 -10 5 0 7 5 4 10 -3 6 -8 10 -11 10 -2 0
-4 -4 -4 -10z"/>
<path d="M3440 8356 c0 -3 9 -10 20 -16 11 -6 20 -8 20 -6 0 3 -9 10 -20 16
-11 6 -20 8 -20 6z"/>
<path d="M3420 8330 c-9 -6 -10 -10 -3 -10 6 0 15 5 18 10 8 12 4 12 -15 0z"/>
<path d="M3067 8323 c-4 -5 10 -28 29 -49 20 -22 31 -31 24 -21 -10 14 -10 24
-1 45 l12 27 -19 -24 -19 -24 -10 29 c-5 15 -12 23 -16 17z"/>
<path d="M3485 8320 c-3 -6 4 -10 17 -10 13 0 34 -7 46 -16 13 -9 26 -14 29
-11 4 5 -68 47 -81 47 -3 0 -8 -4 -11 -10z"/>
<path d="M3630 8253 c41 -25 70 -36 70 -28 0 4 -98 55 -107 55 -5 0 12 -12 37
-27z"/>
<path d="M3540 8260 c-18 -12 -2 -12 25 0 13 6 15 9 5 9 -8 0 -22 -4 -30 -9z"/>
<path d="M3145 8230 c-4 -6 5 -25 19 -43 14 -18 47 -60 73 -94 35 -46 50 -59
60 -52 17 15 33 2 32 -24 l0 -22 -9 23 c-10 25 -20 29 -20 8 0 -7 13 -29 28
-49 l29 -36 0 47 c0 33 -1 37 -4 14 -2 -18 -8 -30 -13 -27 -5 3 -6 20 -3 39 4
29 1 36 -28 57 -36 25 -58 49 -59 63 0 5 7 3 15 -4 8 -7 15 -8 15 -2 0 5 -7
15 -15 22 -12 10 -15 10 -15 -1 0 -8 -5 -6 -14 6 -8 12 -19 16 -31 11 -14 -5
-16 -2 -12 14 4 17 3 19 -9 9 -20 -16 -18 0 4 24 9 11 12 17 5 14 -6 -4 -14
-3 -18 3 -8 13 -22 13 -30 0z m26 -13 c-1 -12 -15 -9 -19 4 -3 6 1 10 8 8 6
-3 11 -8 11 -12z m53 -69 c-3 -4 -1 -8 3 -8 5 0 17 -15 28 -32 10 -18 23 -36
29 -40 6 -4 8 -9 5 -13 -3 -3 -24 19 -46 48 -22 30 -34 54 -27 54 7 0 11 -4 8
-9z"/>
<path d="M3702 8203 c-10 -10 -10 -13 0 -14 7 -1 20 -3 28 -4 8 -1 20 -3 27
-4 7 0 10 -13 8 -31 -3 -25 -2 -28 9 -17 10 8 11 16 4 25 -7 8 -7 12 0 12 5 0
15 -7 22 -15 7 -8 19 -15 26 -15 8 0 14 -5 14 -11 0 -6 -9 -8 -22 -4 -18 6
-20 5 -12 -5 7 -7 21 -9 34 -5 29 9 17 21 -65 68 -50 28 -63 31 -73 20z"/>
<path d="M6445 8169 c-4 -6 -13 -8 -21 -5 -8 3 -11 0 -7 -10 5 -13 8 -13 24 2
10 9 23 13 30 8 8 -4 10 -3 5 4 -9 15 -23 15 -31 1z"/>
<path d="M6543 8146 c9 -7 17 -21 17 -31 0 -14 3 -15 14 -6 9 8 16 8 20 2 4
-5 -2 -14 -11 -20 -10 -6 -13 -11 -6 -11 6 0 15 5 18 10 4 6 30 -8 60 -32 53
-41 54 -43 32 -55 -12 -7 -17 -12 -12 -12 6 -1 17 3 25 9 15 10 40 -4 40 -23
0 -7 -4 -7 -12 1 -15 15 -28 16 -28 2 0 -5 8 -10 18 -10 14 0 12 -4 -8 -20
-14 -10 -25 -27 -25 -37 0 -11 -7 -17 -18 -15 -17 3 -24 -13 -8 -22 9 -6 54
38 46 46 -3 2 6 15 20 28 14 13 25 27 25 31 0 12 -198 179 -212 179 -9 -1 -7
-5 5 -14z"/>
<path d="M6402 8120 c0 -14 2 -19 5 -12 2 6 2 18 0 25 -3 6 -5 1 -5 -13z"/>
<path d="M6440 8120 c0 -5 5 -10 10 -10 6 0 10 5 10 10 0 6 -4 10 -10 10 -5 0
-10 -4 -10 -10z"/>
<path d="M3875 8111 c6 -11 4 -13 -11 -7 -15 6 -16 5 -7 -5 7 -7 20 -13 30
-14 26 -1 44 -15 37 -26 -3 -5 -1 -8 4 -7 6 2 9 -1 9 -7 -1 -5 -5 -9 -9 -7
-13 4 -9 -5 9 -19 14 -12 16 -12 9 0 -6 9 -5 12 5 9 8 -3 13 -10 12 -15 -1 -6
9 -9 23 -7 32 3 57 -31 41 -57 -6 -10 -16 -15 -22 -12 -5 4 -6 2 -2 -2 11 -12
38 -15 31 -4 -3 6 -1 16 5 23 8 10 6 20 -10 40 -11 14 -24 24 -27 22 -8 -5
-45 20 -40 27 3 4 -24 28 -76 67 -16 12 -18 12 -11 1z"/>
<path d="M3808 8093 c7 -3 16 -2 19 1 4 3 -2 6 -13 5 -11 0 -14 -3 -6 -6z"/>
<path d="M6415 8090 c-3 -5 1 -10 10 -10 9 0 13 5 10 10 -3 6 -8 10 -10 10 -2
0 -7 -4 -10 -10z"/>
<path d="M6500 8070 c0 -5 5 -10 11 -10 5 0 7 5 4 10 -3 6 -8 10 -11 10 -2 0
-4 -4 -4 -10z"/>
<path d="M6418 8063 c12 -2 32 -2 45 0 12 2 2 4 -23 4 -25 0 -35 -2 -22 -4z"/>
<path d="M6405 8035 c23 -8 85 -10 85 -3 0 4 -21 8 -47 7 -27 0 -43 -2 -38 -4z"/>
<path d="M6525 8030 c4 -6 11 -8 16 -5 14 9 11 15 -7 15 -8 0 -12 -5 -9 -10z"/>
<path d="M6556 8013 c-6 -14 -5 -15 5 -6 7 7 10 15 7 18 -3 3 -9 -2 -12 -12z"/>
<path d="M6645 8020 c-8 -13 9 -20 24 -11 10 6 9 10 -3 14 -8 3 -18 2 -21 -3z"/>
<path d="M6507 7999 c7 -7 15 -10 18 -7 3 3 -2 9 -12 12 -14 6 -15 5 -6 -5z"/>
<path d="M3370 7960 c0 -39 17 -90 30 -90 4 0 5 -26 4 -57 l-3 -58 9 59 c6 33
14 64 20 70 19 19 10 29 -10 11 -21 -19 -28 -7 -8 13 9 9 9 12 0 12 -7 0 -12
-5 -12 -12 0 -6 -3 -8 -7 -4 -4 4 -6 27 -4 51 1 27 -2 45 -8 45 -6 0 -11 -18
-11 -40z"/>
<path d="M6280 7985 c0 -8 5 -15 10 -15 6 0 10 7 10 15 0 8 -4 15 -10 15 -5 0
-10 -7 -10 -15z"/>
<path d="M6476 7970 c8 -43 14 -51 14 -19 0 13 -5 31 -10 39 -7 11 -8 5 -4
-20z"/>
<path d="M6652 7940 c-7 -11 -9 -20 -4 -20 4 0 13 9 20 20 7 11 9 20 4 20 -4
0 -13 -9 -20 -20z"/>
<path d="M6510 7911 c0 -6 5 -13 10 -16 6 -3 10 1 10 9 0 9 -4 16 -10 16 -5 0
-10 -4 -10 -9z"/>
<path d="M6590 7915 c0 -3 13 -18 29 -34 27 -27 28 -30 13 -47 -16 -18 -16
-18 5 0 19 15 20 22 11 40 -6 11 -17 26 -24 33 -13 13 -34 18 -34 8z"/>
<path d="M4020 7860 c0 -11 5 -20 10 -20 6 0 10 9 10 20 0 11 -4 20 -10 20 -5
0 -10 -9 -10 -20z"/>
<path d="M6484 7856 c0 -14 6 -22 14 -19 17 7 15 43 -2 43 -8 0 -13 -9 -12
-24z"/>
<path d="M6525 7840 c-3 -5 -2 -10 4 -10 5 0 13 5 16 10 3 6 2 10 -4 10 -5 0
-13 -4 -16 -10z"/>
<path d="M6408 7833 c6 -2 18 -2 25 0 6 3 1 5 -13 5 -14 0 -19 -2 -12 -5z"/>
<path d="M6575 7830 c3 -4 2 -16 -1 -25 -6 -13 -9 -14 -16 -3 -10 13 -7 1 9
-39 5 -12 3 -14 -7 -8 -9 5 -11 4 -6 -3 4 -7 4 -12 -1 -12 -4 0 -16 -14 -25
-30 -9 -17 -13 -30 -8 -30 6 0 10 4 10 8 0 5 8 17 18 28 55 58 74 119 40 121
-10 1 -16 -2 -13 -7z m25 -26 c0 -3 -7 -12 -15 -20 -16 -17 -18 -14 -9 10 6
15 24 23 24 10z"/>
<path d="M4033 7795 c0 -22 2 -30 4 -17 2 12 2 30 0 40 -3 9 -5 -1 -4 -23z"/>
<path d="M6455 7810 c3 -5 10 -10 16 -10 5 0 9 5 9 10 0 6 -7 10 -16 10 -8 0
-12 -4 -9 -10z"/>
<path d="M6500 7800 c0 -5 5 -10 10 -10 6 0 10 5 10 10 0 6 -4 10 -10 10 -5 0
-10 -4 -10 -10z"/>
<path d="M6400 7790 c0 -5 7 -10 15 -10 8 0 15 5 15 10 0 6 -7 10 -15 10 -8 0
-15 -4 -15 -10z"/>
<path d="M6462 7763 c20 -3 25 -8 21 -21 -6 -14 -5 -15 9 -2 19 18 5 30 -32
28 -24 -1 -24 -1 2 -5z"/>
<path d="M6525 7759 c-4 -6 -5 -12 -2 -15 2 -3 7 2 10 11 7 17 1 20 -8 4z"/>
<path d="M6240 7720 c0 -29 4 -40 15 -40 11 0 15 11 15 40 0 29 -4 40 -15 40
-11 0 -15 -11 -15 -40z"/>
<path d="M6323 7720 c0 -25 2 -35 4 -22 2 12 2 32 0 45 -2 12 -4 2 -4 -23z"/>
<path d="M6350 7720 c0 -22 5 -40 10 -40 6 0 10 18 10 40 0 22 -4 40 -10 40
-5 0 -10 -18 -10 -40z"/>
<path d="M6391 7744 c0 -11 3 -14 6 -6 3 7 2 16 -1 19 -3 4 -6 -2 -5 -13z"/>
<path d="M6080 7706 c0 -28 27 -41 61 -31 18 6 19 5 7 -14 -16 -26 -36 -27
-54 -3 -9 11 -13 12 -14 4 0 -7 9 -23 21 -35 19 -20 21 -21 33 -5 12 17 66 14
66 -3 0 -5 9 -9 20 -9 11 0 20 5 20 10 0 6 -9 10 -20 10 -11 0 -20 5 -20 10 0
6 -9 10 -20 10 -28 0 -25 20 3 21 12 1 -2 7 -31 14 -66 16 -76 25 -29 25 21 0
37 5 37 10 0 6 -18 10 -40 10 -36 0 -40 -3 -40 -24z"/>
<path d="M6500 7719 c0 -5 5 -7 10 -4 6 3 10 8 10 11 0 2 -4 4 -10 4 -5 0 -10
-5 -10 -11z"/>
<path d="M6388 7693 c-3 -13 -2 -23 3 -23 5 0 9 -6 9 -14 0 -18 30 -30 44 -16
7 7 4 10 -11 10 -14 0 -23 9 -30 33 -8 29 -10 30 -15 10z"/>
<path d="M3920 7690 c0 -5 5 -10 10 -10 6 0 10 5 10 10 0 6 -4 10 -10 10 -5 0
-10 -4 -10 -10z"/>
<path d="M3488 7673 c6 -2 18 -2 25 0 6 3 1 5 -13 5 -14 0 -19 -2 -12 -5z"/>
<path d="M4033 7640 c0 -25 2 -35 4 -22 2 12 2 32 0 45 -2 12 -4 2 -4 -23z"/>
<path d="M6428 7673 c7 -3 16 -2 19 1 4 3 -2 6 -13 5 -11 0 -14 -3 -6 -6z"/>
<path d="M6470 7669 c0 -5 5 -7 10 -4 6 3 10 8 10 11 0 2 -4 4 -10 4 -5 0 -10
-5 -10 -11z"/>
<path d="M6320 7640 c0 -33 11 -38 30 -15 10 12 10 18 0 30 -19 23 -30 18 -30
-15z"/>
<path d="M6467 7630 c-29 -28 -35 -40 -25 -46 7 -4 10 -4 7 0 -4 4 9 23 29 42
19 19 33 36 31 38 -2 3 -21 -13 -42 -34z"/>
<path d="M3440 7650 c0 -5 5 -10 10 -10 6 0 10 5 10 10 0 6 -4 10 -10 10 -5 0
-10 -4 -10 -10z"/>
<path d="M3520 7650 c0 -5 -9 -10 -20 -10 -11 0 -20 -7 -20 -15 0 -8 9 -15 20
-15 13 0 20 -7 20 -20 0 -11 7 -20 15 -20 8 0 15 6 15 14 0 10 13 16 38 19 30
3 28 4 -15 5 -40 2 -53 6 -53 17 0 11 11 15 40 15 22 0 40 5 40 10 0 6 -18 10
-40 10 -22 0 -40 -4 -40 -10z"/>
<path d="M6405 7620 c-3 -5 -1 -10 4 -10 6 0 11 5 11 10 0 6 -2 10 -4 10 -3 0
-8 -4 -11 -10z"/>
<path d="M3403 7570 c0 -30 2 -43 4 -27 2 15 2 39 0 55 -2 15 -4 2 -4 -28z"/>
<path d="M6152 7596 c7 -8 15 -11 18 -7 3 3 9 9 14 14 5 4 -3 7 -18 7 -22 0
-25 -2 -14 -14z"/>
<path d="M3813 7560 c0 -25 2 -35 4 -22 2 12 2 32 0 45 -2 12 -4 2 -4 -23z"/>
<path d="M6405 7576 c0 -13 4 -28 8 -32 4 -5 5 -1 1 9 -5 14 -2 16 12 10 18
-6 18 -6 0 15 -11 12 -20 22 -21 22 0 0 -1 -11 0 -24z"/>
<path d="M4022 7560 c0 -19 2 -27 5 -17 2 9 2 25 0 35 -3 9 -5 1 -5 -18z"/>
<path d="M3680 7570 c0 -5 5 -10 11 -10 5 0 7 5 4 10 -3 6 -8 10 -11 10 -2 0
-4 -4 -4 -10z"/>
<path d="M6187 7564 c-16 -16 -7 -44 14 -44 15 0 20 5 17 22 -3 22 -19 33 -31
22z"/>
<path d="M3920 7545 c0 -9 6 -12 15 -9 8 4 15 7 15 9 0 2 -7 5 -15 9 -9 3 -15
0 -15 -9z"/>
<path d="M3570 7535 c0 -8 7 -15 15 -15 8 0 15 7 15 15 0 8 -7 15 -15 15 -8 0
-15 -7 -15 -15z"/>
<path d="M3735 7530 c-3 -5 1 -10 9 -10 9 0 16 5 16 10 0 6 -4 10 -9 10 -6 0
-13 -4 -16 -10z"/>
<path d="M3968 7523 c6 -2 18 -2 25 0 6 3 1 5 -13 5 -14 0 -19 -2 -12 -5z"/>
<path d="M6395 7520 c-3 -5 -19 -8 -35 -6 -40 4 -57 -16 -42 -49 11 -24 32
-35 32 -17 0 5 8 17 18 28 30 34 45 54 39 54 -3 0 -9 -4 -12 -10z m-35 -20 c5
8 10 10 10 4 0 -6 -8 -21 -19 -33 -15 -18 -20 -19 -25 -6 -3 8 -3 22 1 31 5
13 7 13 14 2 7 -11 11 -10 19 2z"/>
<path d="M3440 7505 c0 -8 5 -15 10 -15 6 0 10 7 10 15 0 8 -4 15 -10 15 -5 0
-10 -7 -10 -15z"/>
<path d="M3650 7505 c7 -8 16 -15 21 -15 5 0 9 7 9 15 0 9 -9 15 -21 15 -18 0
-19 -2 -9 -15z"/>
<path d="M4024 7443 c0 -46 4 -83 8 -83 10 0 9 47 -1 115 -7 45 -8 41 -7 -32z"/>
<path d="M3920 7480 c0 -13 5 -18 15 -14 8 4 15 10 15 14 0 4 -7 10 -15 14
-10 4 -15 -1 -15 -14z"/>
<path d="M3490 7455 c0 -8 7 -15 15 -15 8 0 15 7 15 15 0 8 -7 15 -15 15 -8 0
-15 -7 -15 -15z"/>
<path d="M6244 7416 c-1 -17 1 -23 3 -13 2 9 9 17 14 17 13 0 11 17 -3 23 -9
3 -13 -6 -14 -27z"/>
<path d="M3403 7360 c0 -47 2 -66 4 -42 2 23 2 61 0 85 -2 23 -4 4 -4 -43z"/>
<path d="M3703 7433 c9 -2 25 -2 35 0 9 3 1 5 -18 5 -19 0 -27 -2 -17 -5z"/>
<path d="M3848 7433 c7 -3 16 -2 19 1 4 3 -2 6 -13 5 -11 0 -14 -3 -6 -6z"/>
<path d="M3903 7430 c-32 -13 -29 -26 8 -34 42 -8 49 -8 49 4 0 6 -9 10 -20
10 -25 0 -26 17 -2 23 11 3 12 5 2 5 -8 0 -25 -3 -37 -8z"/>
<path d="M3985 7430 c-19 -7 -19 -7 0 -18 20 -11 20 -11 0 -26 -18 -14 -18
-15 -2 -16 9 0 17 -6 17 -14 0 -8 -8 -17 -17 -19 -17 -4 -17 -5 0 -6 10 -1 17
-9 17 -20 0 -11 -8 -22 -17 -24 -11 -3 -7 -5 10 -6 l29 -1 -7 78 c-4 42 -8 78
-9 78 0 1 -10 -2 -21 -6z"/>
<path d="M3650 7415 c49 -19 71 -19 46 0 -11 8 -34 15 -50 14 l-31 -1 35 -13z"/>
<path d="M3735 7410 c-3 -5 1 -10 9 -10 9 0 16 5 16 10 0 6 -4 10 -9 10 -6 0
-13 -4 -16 -10z"/>
<path d="M3600 7400 c0 -5 12 -12 28 -15 15 -3 42 -10 60 -15 20 -5 43 -5 55
0 19 7 16 9 -14 9 -20 1 -56 8 -79 16 -50 18 -50 18 -50 5z"/>
<path d="M3848 7383 c7 -3 16 -2 19 1 4 3 -2 6 -13 5 -11 0 -14 -3 -6 -6z"/>
<path d="M3889 7376 c-2 -3 -3 -23 -1 -45 4 -37 6 -39 35 -38 38 2 50 27 13
27 -20 0 -26 5 -26 23 0 16 3 19 9 8 5 -8 16 -11 27 -7 10 4 14 10 8 16 -11
11 -58 23 -65 16z"/>
<path d="M3608 7325 c2 -25 8 -45 12 -45 4 0 10 20 12 45 2 35 0 45 -12 45
-12 0 -14 -10 -12 -45z"/>
<path d="M3524 7338 c3 -13 6 -31 6 -40 0 -10 5 -18 10 -18 6 0 10 18 10 40 0
30 -4 40 -16 40 -12 0 -15 -6 -10 -22z"/>
<path d="M3650 7320 c0 -22 5 -40 10 -40 6 0 10 18 10 40 0 22 -4 40 -10 40
-5 0 -10 -18 -10 -40z"/>
<path d="M3720 7350 l-45 -7 58 -1 c32 -1 57 2 57 8 0 11 -1 11 -70 0z"/>
<path d="M3850 7340 c0 -11 5 -20 10 -20 6 0 10 9 10 20 0 11 -4 20 -10 20 -5
0 -10 -9 -10 -20z"/>
<path d="M3570 7312 c0 -33 -19 -45 -56 -36 -18 5 -24 2 -24 -10 0 -11 9 -16
30 -16 17 0 30 -4 30 -10 0 -5 -7 -10 -15 -10 -8 0 -15 -4 -15 -10 0 -11 68
-25 77 -16 4 3 -1 6 -10 6 -9 0 -17 5 -17 11 0 13 53 2 58 -12 2 -5 19 -9 39
-9 31 0 33 2 19 15 -8 8 -21 15 -29 15 -8 0 -20 7 -27 15 -8 9 -21 13 -36 9
-15 -4 -24 -2 -24 5 0 6 6 11 13 11 9 0 12 10 9 30 -6 40 -22 49 -22 12z"/>
<path d="M3810 7320 c0 -11 7 -20 15 -20 8 0 15 9 15 20 0 11 -7 20 -15 20 -8
0 -15 -9 -15 -20z"/>
<path d="M3680 7310 c0 -5 18 -10 40 -10 22 0 40 5 40 10 0 6 -18 10 -40 10
-22 0 -40 -4 -40 -10z"/>
<path d="M3720 7291 c-33 -4 -40 -8 -27 -13 22 -10 97 1 97 13 0 5 -6 8 -12 7
-7 0 -33 -4 -58 -7z"/>
<path d="M3846 7291 c-3 -5 -26 -12 -51 -16 -26 -3 -49 -13 -52 -21 -7 -19
-33 -18 -49 4 -9 11 -13 12 -14 4 0 -7 9 -22 20 -34 l20 -22 20 22 c21 23 50
30 50 12 0 -5 -5 -10 -11 -10 -6 0 -17 -7 -26 -15 -14 -14 -13 -15 11 -9 21 5
25 3 20 -10 -4 -12 0 -16 15 -16 12 0 21 5 21 10 0 6 16 10 35 10 24 0 35 5
35 14 0 8 -16 20 -35 26 -41 14 -45 27 -10 36 14 3 25 10 25 15 0 12 -17 12
-24 0z m-6 -71 c0 -5 -4 -10 -10 -10 -5 0 -10 5 -10 10 0 6 5 10 10 10 6 0 10
-4 10 -10z"/>
<path d="M3918 7233 c5 -55 7 -57 21 -48 6 3 11 26 11 51 0 36 -3 44 -19 44
-16 0 -18 -6 -13 -47z"/>
<path d="M3403 7235 c0 -22 2 -30 4 -17 2 12 2 30 0 40 -3 9 -5 -1 -4 -23z"/>
<path d="M4000 7250 c0 -13 5 -18 15 -14 8 4 15 10 15 14 0 4 -7 10 -15 14
-10 4 -15 -1 -15 -14z"/>
<path d="M3402 7160 c0 -19 2 -27 5 -17 2 9 2 25 0 35 -3 9 -5 1 -5 -18z"/>
<path d="M5935 5890 c-3 -6 1 -7 9 -4 18 7 21 14 7 14 -6 0 -13 -4 -16 -10z"/>
<path d="M5225 4975 c39 -32 57 -32 19 0 -16 14 -33 25 -39 25 -5 0 4 -11 20
-25z"/>
<path d="M5399 4821 c25 -31 53 -67 61 -80 15 -22 15 -22 15 17 0 35 -2 39
-17 31 -18 -10 -34 4 -24 20 3 5 -1 14 -9 21 -8 7 -15 9 -15 5 0 -5 -9 0 -20
10 -11 10 -18 21 -15 25 2 4 -2 7 -9 7 -8 0 7 -25 33 -56z m26 -1 c3 -5 1 -10
-4 -10 -6 0 -11 5 -11 10 0 6 2 10 4 10 3 0 8 -4 11 -10z m45 -61 c0 -6 -4 -7
-10 -4 -5 3 -10 11 -10 16 0 6 5 7 10 4 6 -3 10 -11 10 -16z"/>
<path d="M4520 4839 c0 -5 5 -7 10 -4 6 3 10 8 10 11 0 2 -4 4 -10 4 -5 0 -10
-5 -10 -11z"/>
<path d="M4545 4800 c28 -12 37 -12 30 0 -3 6 -16 10 -28 9 -21 0 -21 -1 -2
-9z"/>
<path d="M4638 4758 c-1 -24 -1 -55 0 -70 3 -36 -4 -35 -29 5 -12 17 -18 23
-14 12 4 -11 10 -28 12 -37 3 -10 13 -18 22 -19 9 -1 5 -4 -9 -9 l-25 -8 28
-1 27 -1 0 85 c0 87 -9 118 -12 43z"/>
<path d="M4291 4754 c0 -11 3 -14 6 -6 3 7 2 16 -1 19 -3 4 -6 -2 -5 -13z"/>
<path d="M4472 4740 c-7 -11 -8 -20 -3 -20 9 0 24 30 18 36 -1 2 -8 -6 -15
-16z"/>
<path d="M4552 4734 c-7 -8 -8 -14 -3 -14 10 0 25 19 20 25 -2 1 -10 -3 -17
-11z"/>
<path d="M4360 4730 c0 -5 5 -10 11 -10 5 0 7 5 4 10 -3 6 -8 10 -11 10 -2 0
-4 -4 -4 -10z"/>
<path d="M5495 4716 c0 -13 4 -28 8 -32 4 -5 5 0 1 10 -5 14 -4 17 5 11 10 -6
11 -3 2 14 -15 27 -17 26 -16 -3z"/>
<path d="M4063 4680 c0 -25 2 -35 4 -22 2 12 2 32 0 45 -2 12 -4 2 -4 -23z"/>
<path d="M4130 4709 c0 -5 5 -7 10 -4 6 3 10 8 10 11 0 2 -4 4 -10 4 -5 0 -10
-5 -10 -11z"/>
<path d="M4306 4712 c6 -4 14 -14 17 -22 4 -10 6 -8 6 8 1 15 -5 22 -16 22
-11 0 -14 -3 -7 -8z"/>
<path d="M4492 4709 c2 -6 8 -10 13 -10 5 0 11 4 13 10 2 6 -4 11 -13 11 -9 0
-15 -5 -13 -11z"/>
<path d="M4220 4700 c0 -5 5 -10 11 -10 5 0 7 5 4 10 -3 6 -8 10 -11 10 -2 0
-4 -4 -4 -10z"/>
<path d="M4527 4670 c-31 -36 -35 -37 -39 -8 -2 12 -9 23 -16 24 -7 1 -8 0 -2
-3 19 -9 10 -33 -12 -34 -19 -1 -18 -2 7 -10 37 -11 70 -4 95 21 15 15 16 21
5 30 -10 8 -19 3 -38 -20z"/>
<path d="M4290 4660 c19 -13 30 -13 30 0 0 6 -10 10 -22 10 -19 0 -20 -2 -8
-10z"/>
<path d="M4400 4660 c0 -5 7 -7 15 -4 8 4 15 8 15 10 0 2 -7 4 -15 4 -8 0 -15
-4 -15 -10z"/>
<path d="M4570 4650 c0 -5 5 -10 10 -10 6 0 10 5 10 10 0 6 -4 10 -10 10 -5 0
-10 -4 -10 -10z"/>
<path d="M5540 4650 c0 -14 68 -112 93 -135 6 -5 5 -2 -2 7 -7 9 -9 23 -5 29
4 7 3 9 -4 5 -13 -8 -35 28 -24 39 4 3 1 5 -6 3 -8 -1 -22 13 -33 32 -10 19
-19 28 -19 20z"/>
<path d="M6384 4648 c-4 -7 -3 -10 1 -5 5 4 18 -1 29 -10 21 -18 21 -18 2 5
-22 26 -23 26 -32 10z"/>
<path d="M4390 4613 c0 -9 16 -13 45 -13 25 0 45 4 45 9 0 5 -20 11 -45 13
-31 2 -45 -1 -45 -9z"/>
<path d="M6406 4573 c-6 -14 -5 -15 5 -6 7 7 10 15 7 18 -3 3 -9 -2 -12 -12z"/>
<path d="M6445 4581 c-3 -5 -2 -12 3 -15 5 -3 9 1 9 9 0 17 -3 19 -12 6z"/>
<path d="M5646 4551 c-3 -5 2 -15 12 -22 15 -12 16 -12 5 2 -7 9 -10 19 -6 22
3 4 4 7 0 7 -3 0 -8 -4 -11 -9z"/>
<path d="M5646 4502 c-3 -5 6 -21 20 -38 13 -16 21 -21 18 -11 -3 9 -1 17 5
17 6 0 11 -4 11 -10 0 -16 17 -12 24 6 4 9 2 13 -5 8 -6 -3 -24 3 -39 15 -16
11 -31 17 -34 13z m25 -19 c13 -16 12 -17 -3 -4 -10 7 -18 15 -18 17 0 8 8 3
21 -13z"/>
<path d="M5735 4410 c9 -16 17 -30 19 -30 3 0 -1 14 -7 30 -6 17 -15 30 -19
30 -5 0 -2 -13 7 -30z"/>
<path d="M5700 4427 c0 -5 11 -25 25 -45 14 -20 25 -33 25 -29 0 5 -11 25 -25
45 -14 20 -25 33 -25 29z"/>
<path d="M6600 4341 c0 -6 4 -13 10 -16 6 -3 7 1 4 9 -7 18 -14 21 -14 7z"/>
<path d="M5900 4330 c0 -5 7 -10 16 -10 8 0 12 5 9 10 -3 6 -10 10 -16 10 -5
0 -9 -4 -9 -10z"/>
<path d="M6639 4327 c6 -8 7 -18 3 -23 -4 -5 -3 -6 2 -2 5 4 16 2 25 -4 9 -7
5 0 -8 15 -25 27 -43 39 -22 14z"/>
<path d="M6078 4323 c7 -3 16 -2 19 1 4 3 -2 6 -13 5 -11 0 -14 -3 -6 -6z"/>
<path d="M5780 4314 c0 -5 41 -63 90 -129 50 -66 90 -123 90 -128 0 -5 7 -7
15 -4 8 4 17 1 21 -5 4 -7 3 -8 -4 -4 -7 4 -12 0 -12 -10 0 -15 4 -14 25 6 14
13 25 25 25 27 0 1 -14 1 -31 -1 -24 -3 -32 1 -39 18 -4 11 -17 29 -28 39 -17
15 -19 24 -11 44 6 17 6 22 -2 17 -7 -4 -9 0 -5 13 4 13 0 25 -11 34 -15 11
-16 11 -5 -1 14 -17 16 -30 3 -30 -5 0 -12 8 -16 19 -3 11 -14 18 -28 17 -15
-1 -22 4 -21 16 1 10 -2 15 -7 12 -5 -3 -9 -1 -9 5 0 5 5 13 11 16 14 9 6 28
-14 31 -9 1 -15 -2 -11 -7 3 -5 10 -7 15 -4 5 4 9 2 9 -4 0 -21 -19 -20 -34 1
-9 12 -16 18 -16 12z m130 -156 c0 -14 -33 23 -51 57 -6 11 3 6 20 -12 17 -18
31 -38 31 -45z"/>
<path d="M5903 4292 c-8 -5 -2 -16 22 -35 39 -31 52 -35 30 -9 -8 9 -20 25
-27 34 -8 10 -18 14 -25 10z"/>
<path d="M6025 4290 c3 -5 11 -10 16 -10 6 0 7 5 4 10 -3 6 -11 10 -16 10 -6
0 -7 -4 -4 -10z"/>
<path d="M6653 4275 c0 -8 3 -13 5 -10 3 3 13 -2 23 -11 10 -9 20 -11 23 -6 3
5 -1 15 -9 22 -8 7 -15 9 -15 5 0 -4 -6 -2 -13 4 -10 8 -14 7 -14 -4z"/>
<path d="M6000 4251 c0 -9 30 -24 36 -18 2 1 -6 8 -16 15 -11 7 -20 8 -20 3z"/>
<path d="M5990 4218 c0 -9 5 -20 10 -23 13 -8 13 5 0 25 -8 13 -10 13 -10 -2z"/>
<path d="M6050 4200 c0 -5 5 -10 11 -10 5 0 7 5 4 10 -3 6 -8 10 -11 10 -2 0
-4 -4 -4 -10z"/>
<path d="M6227 4193 c-4 -3 -7 -13 -7 -22 1 -13 3 -13 11 2 11 19 8 33 -4 20z"/>
<path d="M6167 4171 c-3 -14 -1 -18 9 -14 16 6 18 19 5 27 -5 3 -11 -3 -14
-13z"/>
<path d="M5986 4158 c-3 -15 1 -28 11 -38 15 -13 16 -13 5 1 -6 8 -9 25 -5 37
3 12 3 22 0 22 -2 0 -7 -10 -11 -22z"/>
<path d="M6016 4155 c4 -9 11 -14 16 -13 15 5 11 23 -6 26 -11 2 -14 -2 -10
-13z"/>
<path d="M5930 4151 c0 -10 19 -25 25 -20 1 2 -3 10 -11 17 -8 7 -14 8 -14 3z"/>
<path d="M6090 4152 c0 -7 -4 -10 -10 -7 -6 4 -7 -6 -3 -27 7 -39 13 -49 13
-22 0 11 4 24 10 30 6 6 6 15 0 24 -7 11 -10 11 -10 2z"/>
<path d="M6137 4146 c-3 -8 -2 -18 4 -22 16 -9 22 2 11 21 -8 15 -10 16 -15 1z"/>
<path d="M6187 4133 c-9 -17 -21 -33 -27 -35 -16 -5 -1 -38 17 -38 10 0 13 6
9 16 -4 9 1 28 9 41 9 13 14 30 12 36 -2 7 -11 -2 -20 -20z"/>
<path d="M6636 4127 c3 -10 9 -15 12 -12 3 3 0 11 -7 18 -10 9 -11 8 -5 -6z"/>
<path d="M5967 4109 c6 -6 9 -19 5 -28 -5 -14 -3 -14 11 -3 14 12 14 16 2 28
-7 8 -17 14 -21 14 -5 0 -3 -5 3 -11z"/>
<path d="M6805 4062 c0 -40 4 -59 12 -59 7 0 9 5 6 10 -3 6 -7 25 -9 44 -2 30
-1 33 14 21 12 -10 12 -8 -2 15 -10 15 -19 27 -20 27 -1 0 -1 -26 -1 -58z"/>
<path d="M6036 4095 c-4 -10 1 -15 14 -15 11 0 20 7 20 15 0 8 -6 15 -14 15
-8 0 -16 -7 -20 -15z"/>
<path d="M6584 4101 c3 -5 21 -14 38 -20 l33 -11 -25 20 c-25 20 -56 27 -46
11z"/>
<path d="M6105 4079 c-4 -11 -4 -23 -1 -26 3 -4 6 1 6 10 0 10 5 17 10 17 6 0
10 5 10 10 0 18 -19 10 -25 -11z"/>
<path d="M6210 4090 c0 -5 5 -10 10 -10 6 0 10 5 10 10 0 6 -4 10 -10 10 -5 0
-10 -4 -10 -10z"/>
<path d="M6297 4093 c-9 -15 17 -23 34 -11 11 8 11 9 -3 5 -9 -3 -18 -1 -21 6
-2 8 -5 8 -10 0z"/>
<path d="M6414 4085 c8 -8 17 -15 20 -15 3 0 6 7 6 15 0 9 -9 15 -21 15 -18 0
-19 -2 -5 -15z"/>
<path d="M6668 4083 c7 -3 16 -2 19 1 4 3 -2 6 -13 5 -11 0 -14 -3 -6 -6z"/>
<path d="M6340 4050 c0 -5 9 -10 20 -10 11 0 20 5 20 10 0 6 -9 10 -20 10 -11
0 -20 -4 -20 -10z"/>
<path d="M6620 4050 c0 -5 5 -10 10 -10 6 0 10 5 10 10 0 6 -4 10 -10 10 -5 0
-10 -4 -10 -10z"/>
<path d="M6481 4034 c0 -11 3 -14 6 -6 3 7 2 16 -1 19 -3 4 -6 -2 -5 -13z"/>
<path d="M6520 4041 c0 -6 5 -13 10 -16 6 -3 10 1 10 9 0 9 -4 16 -10 16 -5 0
-10 -4 -10 -9z"/>
<path d="M6642 4025 c-26 -29 -17 -32 17 -6 13 10 19 21 14 24 -6 4 -20 -5
-31 -18z"/>
<path d="M6836 4027 c3 -10 9 -15 12 -12 3 3 0 11 -7 18 -10 9 -11 8 -5 -6z"/>
<path d="M6864 4021 c0 -11 5 -19 11 -18 5 1 9 -5 7 -13 -2 -8 0 -12 4 -8 4 4
14 2 23 -4 9 -7 5 1 -9 17 -14 17 -27 33 -30 37 -3 4 -6 -1 -6 -11z"/>
<path d="M6573 4023 c-26 -5 -31 -23 -8 -23 8 0 15 -4 15 -10 0 -5 -4 -10 -10
-10 -5 0 -10 -5 -10 -11 0 -5 4 -8 9 -4 12 7 42 65 33 64 -4 -1 -17 -4 -29 -6z"/>
<path d="M6668 4003 c-10 -2 -18 -9 -18 -14 0 -12 17 -11 25 2 4 6 13 8 21 5
8 -3 14 -1 14 4 0 10 -12 11 -42 3z"/>
<path d="M6730 4006 c0 -2 9 -6 20 -9 11 -3 18 -1 14 4 -5 9 -34 13 -34 5z"/>
<path d="M6050 3965 c-8 -9 -8 -15 -2 -15 12 0 26 19 19 26 -2 2 -10 -2 -17
-11z"/>
<path d="M6420 3970 c0 -5 9 -10 20 -10 11 0 20 5 20 10 0 6 -9 10 -20 10 -11
0 -20 -4 -20 -10z"/>
<path d="M6748 3970 c-6 -18 8 -50 24 -50 7 0 7 4 0 13 -5 6 -12 21 -14 32 -3
15 -5 17 -10 5z"/>
<path d="M6792 3948 c2 -14 11 -24 23 -25 16 -1 16 -1 3 3 -21 6 -24 30 -5 37
7 3 4 6 -6 6 -13 1 -18 -5 -15 -21z"/>
<path d="M6066 3920 c11 -14 28 -35 36 -47 l15 -23 16 35 c19 41 16 44 -14 13
-20 -21 -21 -21 -15 -3 4 11 4 16 0 12 -4 -4 -19 3 -33 15 l-26 23 21 -25z"/>
<path d="M6282 3658 c-6 -8 -7 -19 -3 -26 6 -10 11 -9 21 3 9 11 10 19 3 26
-7 7 -14 5 -21 -3z"/>
<path d="M2716 1618 c3 -4 12 -8 20 -8 8 0 14 4 14 8 0 4 -9 8 -19 8 -11 0
-17 -4 -15 -8z"/>
</g>
</svg>
