<?xml version="1.0" encoding="iso-8859-1"?>
<!-- Uploaded to: SVG Repo, www.svgrepo.com, Generator: SVG Repo Mixer Tools -->
<svg fill="#000000" height="800px" width="800px" version="1.1" id="Layer_1" xmlns="http://www.w3.org/2000/svg" xmlns:xlink="http://www.w3.org/1999/xlink" 
	 viewBox="0 0 512 512" xml:space="preserve">
<g>
	<g>
		<g>
			<path d="M317.793,150.069c0-34.074-27.719-61.793-61.793-61.793s-61.793,27.719-61.793,61.793s27.719,61.793,61.793,61.793
				S317.793,184.143,317.793,150.069z"/>
			<path d="M158.897,194.207c-34.074,0-61.793,27.719-61.793,61.793s27.719,61.793,61.793,61.793S220.69,290.074,220.69,256
				S192.971,194.207,158.897,194.207z"/>
			<path d="M61.793,300.138C27.719,300.138,0,327.857,0,361.931s27.719,61.793,61.793,61.793s61.793-27.719,61.793-61.793
				S95.868,300.138,61.793,300.138z"/>
			<path d="M414.897,256c0-34.074-27.719-61.793-61.793-61.793S291.31,221.926,291.31,256s27.719,61.793,61.793,61.793
				S414.897,290.074,414.897,256z"/>
			<path d="M450.207,300.138c-34.074,0-61.793,27.719-61.793,61.793s27.719,61.793,61.793,61.793
				c34.075,0,61.793-27.719,61.793-61.793S484.281,300.138,450.207,300.138z"/>
		</g>
	</g>
</g>
</svg>